<svg width="40" height="40" viewBox="0 0 40 40" fill="none" xmlns="http://www.w3.org/2000/svg">
  <path opacity="0.15" fill-rule="evenodd" clip-rule="evenodd" d="M3 1C1.89543 1 1 1.89543 1 3V37C1 38.1046 1.89543 39 3 39H37C38.1046 39 39 38.1046 39 37V3C39 1.89543 38.1046 1 37 1H3Z" fill="url(#paint0_linear)"/>
  <path d="M10 30V15H13V30H10ZM17 30V10H20V30H17ZM24 30V20H27V30H24Z" fill="url(#paint1_linear)"/>
  <path d="M10 14L15 10L20 14L25 10L30 14" stroke="hsl(217, 98%, 59%)" stroke-width="2"/>
  <path d="M10 20L15 16L20 20L25 16L30 20" stroke="hsl(217, 98%, 59%)" stroke-width="2"/>
  <path d="M10 26L15 22L20 26L25 22L30 26" stroke="hsl(217, 98%, 59%)" stroke-width="2"/>
  <defs>
    <linearGradient id="paint0_linear" x1="2.12767" y1="1" x2="38.7018" y2="1" gradientUnits="userSpaceOnUse">
      <stop offset="0.259336" stop-color="hsl(217, 98%, 59%)"/>
      <stop offset="1" stop-color="hsl(217, 98%, 59%)"/>
    </linearGradient>
    <linearGradient id="paint1_linear" x1="11.5" y1="10" x2="11.5" y2="30" gradientUnits="userSpaceOnUse">
      <stop offset="0.259336" stop-color="hsl(217, 98%, 59%)"/>
      <stop offset="1" stop-color="hsl(217, 98%, 59%)"/>
    </linearGradient>
  </defs>
</svg>
